# xmcd
#
# Track frame offsets: 
#        150
#        18320
#        36493
#
# Disc length: 737 seconds
#
# Revision: 0
# Processed by: cddbd v1.5.2PL0 Copyright (c) Steve Scherf et al.
# Submitted via: ExactAudioCopy v0.95b1
#
DISCID=1e02df03
DTITLE=Robert Cray - The Forecast (Calls for Pain) - Promo CD
DYEAR=1990
DGENRE=Blues
TTITLE0=The Forecast (Calls for Pain)
TTITLE1=The Forecast (Calls for Pain) - Take 1 (with some horns)
TTITLE2=The Forecast (Calls for Pain) - Take 2 (with more horns)
EXTD=
EXTT0=
EXTT1=
EXTT2=
PLAYORDER=
